<svg width="140" height="140" viewBox="0 0 140 140" fill="none" xmlns="http://www.w3.org/2000/svg">
<path d="M92.5537 23.0095C92.5537 21.4671 93.8236 20.2069 95.373 20.2069C96.923 20.2069 98.1906 21.4671 98.1906 23.0095C98.1906 24.5503 96.9229 25.8122 95.373 25.8122C93.823 25.8122 92.5537 24.5498 92.5537 23.0095ZM106.647 25.8122C108.197 25.8122 109.467 24.5498 109.467 23.0095C109.467 21.4671 108.197 20.2069 106.647 20.2069C105.097 20.2069 103.83 21.4671 103.83 23.0095C103.83 24.5498 105.097 25.8122 106.647 25.8122ZM117.921 25.8122C119.471 25.8122 120.74 24.5498 120.74 23.0095C120.74 21.4671 119.47 20.2069 117.921 20.2069C116.371 20.2069 115.103 21.4671 115.103 23.0095C115.103 24.5498 116.371 25.8122 117.921 25.8122ZM132.014 122.89C132.014 127.525 128.22 131.296 123.558 131.296L16.4545 131.295C11.7921 131.295 8 127.524 8 122.889V17.4062C8 12.7714 11.7938 9 16.4545 9H123.558C128.22 9 132.014 12.7714 132.014 17.4062C132.014 56.6134 132.014 83.1887 132.014 122.89ZM16.4539 125.689H123.557C125.112 125.689 126.377 124.432 126.377 122.887C126.377 61.0986 126.377 51.1305 126.377 37.021H44.6398C43.7527 37.021 42.9174 36.6058 42.3856 35.9008L41.1179 34.2184L39.0029 31.4175L34.7746 25.8139H20.6838L13.6365 37.021V122.888C13.6365 124.432 14.899 125.689 16.4539 125.689ZM13.6363 25.8135L17.0189 21.3301C17.5507 20.6229 18.3876 20.2099 19.2731 20.2099H36.1843C37.0714 20.2099 37.9067 20.6251 38.4385 21.3301L46.0495 31.4171H126.377V17.4068C126.377 15.8612 125.113 14.6042 123.558 14.6042H16.4547C14.8998 14.6042 13.6371 15.8612 13.6371 17.4068L13.6363 25.8135ZM22.0904 106.078H64.3697C65.9278 106.078 67.1873 104.825 67.1873 103.276C67.1873 101.728 65.9278 100.475 64.3697 100.475H22.0904C20.5339 100.475 19.2728 101.728 19.2728 103.276C19.2728 104.824 20.534 106.078 22.0904 106.078ZM22.0904 117.285H64.3697C65.9278 117.285 67.1873 116.032 67.1873 114.484C67.1873 112.937 65.9278 111.682 64.3697 111.682H22.0904C20.5339 111.682 19.2728 112.935 19.2728 114.484C19.2728 116.032 20.534 117.285 22.0904 117.285ZM75.6429 106.078H117.921C119.479 106.078 120.74 104.825 120.74 103.276C120.74 101.728 119.479 100.475 117.921 100.475H75.6429C74.0848 100.475 72.8236 101.728 72.8236 103.276C72.8236 104.824 74.0847 106.078 75.6429 106.078ZM106.646 111.683H75.6429C74.0848 111.683 72.8236 112.937 72.8236 114.486C72.8236 116.033 74.0847 117.287 75.6429 117.287H106.646C108.204 117.287 109.465 116.033 109.465 114.486C109.465 112.937 108.204 111.683 106.646 111.683Z" fill="#012169"/>
<path fill-rule="evenodd" clip-rule="evenodd" d="M61.9241 47.8574V61.433C61.9241 62.6824 60.9188 63.6947 59.6751 63.6947H53.5362L52.9257 64.3087V65.4099L56.7665 69.2707C57.1883 69.6949 57.4249 70.2708 57.4249 70.8716C57.4249 71.472 57.1879 72.047 56.7665 72.4712L53.0221 76.2367L50.2457 79.0428C49.9072 79.3832 48.0363 79.375 47.7069 79.0428L42.8357 74.4578L41.2451 76.0574C40.6908 76.6148 39.8917 76.837 39.1274 76.6577C38.367 76.4733 37.7565 75.9053 37.5156 75.1555L33.8264 63.6945H21.4305C20.1882 63.6945 19.1816 62.6822 19.1816 61.4328L19.182 47.8571C19.182 46.6077 20.1886 45.5955 21.431 45.5955H48.426L52.9257 45.5942H59.6752C60.9188 45.5942 61.9241 46.608 61.9241 47.8574ZM23.7023 50.1152H57.4031L57.4026 59.1191H52.0242L50.6633 58.6782L34.2652 53.361C33.4671 53.1067 32.5819 53.3117 31.9844 53.9118C31.3877 54.5106 31.1754 55.3923 31.436 56.1974L32.38 59.1205H23.7023V50.1152ZM50.6631 69.4467L51.9787 70.7663L50.6639 72.0877L48.8031 73.9524L44.4207 69.5609C43.9995 69.1392 43.4298 68.902 42.8323 68.902C42.2343 68.902 41.6651 69.1388 41.2438 69.5609L40.6624 70.1436L38.557 63.6261L37.8298 61.3755L37.1027 59.1235L37.0639 59.0071L37.4277 59.1235L44.3715 61.3755L48.179 62.6092L47.5976 63.1932C47.4653 63.3257 47.3596 63.4731 47.2673 63.6258C46.7472 64.4914 46.8517 65.6301 47.5976 66.3762L48.4158 67.1961L50.6631 69.4467Z" fill="#2563EB"/>
</svg>
