<svg width="140" height="140" viewBox="0 0 140 140" fill="none" xmlns="http://www.w3.org/2000/svg">
<path d="M52.995 34.8963L41.3436 27.4274L29.6921 34.8963V10H52.995V34.8963Z" stroke="#2563EB" stroke-width="5" stroke-miterlimit="10" stroke-linecap="round" stroke-linejoin="round"/>
<path d="M100.792 10H22C16.4772 10 12 14.4772 12 20V120C12 125.523 16.4772 130 22 130H70.5H119C124.523 130 129 125.523 129 120L129 56.5" stroke="#012169" stroke-width="5" stroke-miterlimit="10" stroke-linecap="round" stroke-linejoin="round"/>
<path d="M95 50H35" stroke="#012169" stroke-width="5" stroke-miterlimit="10" stroke-linecap="round" stroke-linejoin="round"/>
<path d="M35 65H82" stroke="#012169" stroke-width="5" stroke-miterlimit="10" stroke-linecap="round" stroke-linejoin="round"/>
<path d="M35 80H71" stroke="#012169" stroke-width="5" stroke-miterlimit="10" stroke-linecap="round" stroke-linejoin="round"/>
<path d="M128.391 23.5003V18.2542C128.31 11.993 123.464 7 117.469 7C111.473 7 106.628 11.993 106.628 18.1692V23.4153C105.15 23.4153 104 24.6002 104 26.1234V44.8234C104 46.3466 105.15 47.5315 106.628 47.5315H128.393C129.871 47.5315 131.021 46.3466 131.021 44.8234L131.019 26.2066C130.937 24.6834 129.787 23.5002 128.391 23.5002L128.391 23.5003ZM118.598 40.5072H116.389C115.664 40.5072 115.111 39.8373 115.229 39.1007L115.745 35.8543C115.003 35.281 114.576 34.2761 114.699 33.2046C114.834 32.023 115.688 31.0248 116.803 30.7131C118.666 30.1898 120.426 31.7113 120.426 33.5712C120.426 34.5011 120.015 35.3477 119.359 35.856L119.765 39.1457C119.854 39.8674 119.305 40.5073 118.598 40.5073V40.5072ZM124.86 23.5003H110.077V18.2542C110.077 14.108 113.362 10.6381 117.469 10.6381C121.493 10.6381 124.861 14.0228 124.861 18.2542L124.86 23.5003Z" fill="#2563EB"/>
<path d="M114.235 108.84C113.154 108.428 111.696 107.988 110.017 108.265C107.878 108.622 105.872 109.656 104.3 111.149C104.139 110.483 103.887 109.834 103.549 109.232C103.305 108.792 102.892 108.182 102.149 107.924C101.626 107.742 101.131 107.806 100.808 107.873C100.726 107.889 100.643 107.909 100.561 107.928C100.852 107.037 101.009 106.098 100.926 105.088C100.808 103.666 100.199 102.319 99.2081 101.305C98.1622 100.228 96.8411 99.6495 95.4729 99.4634C95.2016 98.1245 94.7691 96.9282 94.1714 95.8587C93.6524 94.9278 92.9761 94.401 92.6891 94.1792C89.6184 91.537 85.5882 91.9728 84.2634 92.1194C79.3369 92.6541 75.9752 95.9419 73.5219 98.3384C69.4249 102.343 66.248 107.271 64.078 112.98C63.846 113.594 64.1488 114.279 64.7582 114.517C65.3637 114.75 66.0478 114.445 66.2838 113.831C68.3323 108.448 71.3205 103.81 75.1657 100.046C77.4973 97.7685 80.399 94.9322 84.5199 94.4847C85.5933 94.3659 88.8606 94.0094 91.1608 95.9899L91.2787 96.085C91.4596 96.2236 91.8331 96.5167 92.1201 97.0277C92.533 97.7645 92.8514 98.5924 93.0716 99.5114C92.069 99.6778 91.1057 100.026 90.2801 100.502C88.0468 101.793 86.2145 104.095 84.8345 107.343C84.3194 108.555 84.0324 109.593 83.9302 110.615C83.7532 112.385 83.7454 115.526 85.6798 116.632C86.128 116.889 86.6195 117 87.1307 117C89.3679 117 92.0101 114.817 93.4491 112.868C95.2105 110.484 95.5093 108.147 95.7374 105.109C95.82 103.987 95.8396 102.938 95.7846 101.952C96.4333 102.134 97.0349 102.463 97.5264 102.97C98.124 103.584 98.5094 104.427 98.5801 105.287C98.7138 106.923 97.8134 108.495 96.858 110.159C96.2289 111.256 95.5802 112.389 95.1634 113.633C94.9668 114.223 95.2577 114.869 95.8278 115.107C96.398 115.344 97.0585 115.099 97.3337 114.544C98.2892 112.631 99.4608 110.563 101.269 110.203C101.309 110.195 101.34 110.191 101.364 110.187C101.391 110.222 101.439 110.29 101.498 110.397C102.17 111.597 102.339 113.102 101.958 114.425C101.785 115.015 102.091 115.641 102.661 115.867C103.231 116.089 103.876 115.839 104.148 115.285C105.343 112.845 107.737 111.058 110.403 110.615C111.52 110.432 112.503 110.722 113.403 111.066C114.013 111.296 114.693 110.991 114.925 110.377C115.153 109.759 114.845 109.073 114.235 108.84ZM93.3807 104.926C93.1762 107.647 92.9364 109.572 91.5524 111.446C89.9167 113.656 87.4908 114.932 86.8381 114.559C86.4017 114.31 86.0714 112.856 86.2759 110.848C86.323 110.361 86.4528 109.564 86.9993 108.273C88.171 105.508 89.669 103.587 91.4501 102.561C92.0241 102.228 92.7043 101.983 93.4121 101.86C93.475 102.803 93.4632 103.825 93.3807 104.926Z" fill="#2563EB"/>
</svg>
