<svg width="140" height="140" viewBox="0 0 140 140" fill="none" xmlns="http://www.w3.org/2000/svg">
<path d="M20 84H60" stroke="#2563EB" stroke-width="5" stroke-linecap="round"/>
<path d="M20 92H53.3333" stroke="#2563EB" stroke-width="5" stroke-linecap="round"/>
<path d="M20 100H46.6667" stroke="#2563EB" stroke-width="5" stroke-linecap="round"/>
<path d="M20 108H40" stroke="#2563EB" stroke-width="5" stroke-linecap="round"/>
<path d="M20 116H33.3333" stroke="#2563EB" stroke-width="5" stroke-linecap="round"/>
<path d="M84 60V49" stroke="#2563EB" stroke-width="5" stroke-linecap="round"/>
<path d="M92 60V31" stroke="#2563EB" stroke-width="5" stroke-linecap="round"/>
<path d="M100 60V20" stroke="#2563EB" stroke-width="5" stroke-linecap="round"/>
<path d="M108 60V39" stroke="#2563EB" stroke-width="5" stroke-linecap="round"/>
<path d="M116 60V28" stroke="#2563EB" stroke-width="5" stroke-linecap="round"/>
<rect x="10" y="10" width="60" height="60" rx="5" stroke="#012169" stroke-width="5"/>
<rect x="10" y="70" width="60" height="60" rx="5" stroke="#012169" stroke-width="5"/>
<rect x="70" y="10" width="60" height="60" rx="5" stroke="#012169" stroke-width="5"/>
<rect x="70" y="70" width="60" height="60" rx="5" stroke="#012169" stroke-width="5"/>
<path d="M58 24H22C20.8954 24 20 24.8954 20 26V54C20 55.1045 20.8954 56 22 56H58C59.1046 56 60 55.1045 60 54V26C60 24.8954 59.1046 24 58 24Z" stroke="#2563EB" stroke-width="5" stroke-miterlimit="10" stroke-linecap="round" stroke-linejoin="round"/>
<path d="M29.8304 48.8889H33.2203" stroke="#2563EB" stroke-width="5" stroke-miterlimit="10" stroke-linecap="round" stroke-linejoin="round"/>
<path d="M49.9999 38.1176C52.3669 38.1176 54.2857 36.2214 54.2857 33.8823C54.2857 31.5432 52.3669 29.647 49.9999 29.647C47.633 29.647 45.7142 31.5432 45.7142 33.8823C45.7142 36.2214 47.633 38.1176 49.9999 38.1176Z" fill="#2563EB"/>
<path d="M60 55.9999L50.1695 45.3333L46.7797 48.8888L33.2203 34.6666L20 48.8888" stroke="#2563EB" stroke-width="5" stroke-miterlimit="10" stroke-linecap="round" stroke-linejoin="round"/>
<path d="M89.7436 89.3333L80 99.9999L89.7436 110.667" stroke="#2563EB" stroke-width="5" stroke-miterlimit="10" stroke-linecap="round" stroke-linejoin="round"/>
<path d="M97.4359 116L102.564 84" stroke="#2563EB" stroke-width="5" stroke-miterlimit="10" stroke-linecap="round" stroke-linejoin="round"/>
<path d="M110.256 89.3333L120 99.9999L110.256 110.667" stroke="#2563EB" stroke-width="5" stroke-miterlimit="10" stroke-linecap="round" stroke-linejoin="round"/>
<path d="M20 84H60" stroke="#2563EB" stroke-width="5" stroke-linecap="round"/>
<path d="M20 92H53.3333" stroke="#2563EB" stroke-width="5" stroke-linecap="round"/>
<path d="M20 100H46.6667" stroke="#2563EB" stroke-width="5" stroke-linecap="round"/>
<path d="M20 108H40" stroke="#2563EB" stroke-width="5" stroke-linecap="round"/>
<path d="M20 116H33.3333" stroke="#2563EB" stroke-width="5" stroke-linecap="round"/>
<path d="M84 60V49" stroke="#2563EB" stroke-width="5" stroke-linecap="round"/>
<path d="M92 60V31" stroke="#2563EB" stroke-width="5" stroke-linecap="round"/>
<path d="M100 60V20" stroke="#2563EB" stroke-width="5" stroke-linecap="round"/>
<path d="M108 60V39" stroke="#2563EB" stroke-width="5" stroke-linecap="round"/>
<path d="M116 60V28" stroke="#2563EB" stroke-width="5" stroke-linecap="round"/>
<rect x="10" y="10" width="60" height="60" rx="5" stroke="#012169" stroke-width="5"/>
<rect x="10" y="70" width="60" height="60" rx="5" stroke="#012169" stroke-width="5"/>
<rect x="70" y="10" width="60" height="60" rx="5" stroke="#012169" stroke-width="5"/>
<rect x="70" y="70" width="60" height="60" rx="5" stroke="#012169" stroke-width="5"/>
<path d="M58 24H22C20.8954 24 20 24.8954 20 26V54C20 55.1045 20.8954 56 22 56H58C59.1046 56 60 55.1045 60 54V26C60 24.8954 59.1046 24 58 24Z" stroke="#2563EB" stroke-width="5" stroke-miterlimit="10" stroke-linecap="round" stroke-linejoin="round"/>
<path d="M29.8304 48.8889H33.2203" stroke="#2563EB" stroke-width="5" stroke-miterlimit="10" stroke-linecap="round" stroke-linejoin="round"/>
<path d="M49.9999 38.1176C52.3669 38.1176 54.2857 36.2214 54.2857 33.8823C54.2857 31.5432 52.3669 29.647 49.9999 29.647C47.633 29.647 45.7142 31.5432 45.7142 33.8823C45.7142 36.2214 47.633 38.1176 49.9999 38.1176Z" fill="#2563EB"/>
<path d="M60 55.9999L50.1695 45.3333L46.7797 48.8888L33.2203 34.6666L20 48.8888" stroke="#2563EB" stroke-width="5" stroke-miterlimit="10" stroke-linecap="round" stroke-linejoin="round"/>
<path d="M89.7436 89.3333L80 99.9999L89.7436 110.667" stroke="#2563EB" stroke-width="5" stroke-miterlimit="10" stroke-linecap="round" stroke-linejoin="round"/>
<path d="M97.4359 116L102.564 84" stroke="#2563EB" stroke-width="5" stroke-miterlimit="10" stroke-linecap="round" stroke-linejoin="round"/>
<path d="M110.256 89.3333L120 99.9999L110.256 110.667" stroke="#2563EB" stroke-width="5" stroke-miterlimit="10" stroke-linecap="round" stroke-linejoin="round"/>
</svg>
