<svg width="140" height="140" viewBox="0 0 140 140" fill="none" xmlns="http://www.w3.org/2000/svg">
<path d="M70 27.8855L117.731 41.7709Z" fill="#171717"/>
<path d="M70 27.8855L117.731 41.7709" stroke="#2563EB" stroke-width="3"/>
<path d="M70 27.8855L117.731 97.3127Z" fill="#171717"/>
<path d="M70 27.8855L117.731 97.3127" stroke="#2563EB" stroke-width="3"/>
<path d="M70 68.6739L117.731 41.7709Z" fill="#171717"/>
<path d="M70 68.6739L117.731 41.7709" stroke="#2563EB" stroke-width="3"/>
<path d="M70 68.6739L22.2688 41.7709" stroke="#012169" stroke-width="3"/>
<path d="M70 27.8854L22.2688 41.7709" stroke="#012169" stroke-width="3"/>
<path d="M70 111.198L22.2688 41.7709" stroke="#012169" stroke-width="3"/>
<path d="M70 111.198L22.2688 97.3127" stroke="#012169" stroke-width="3"/>
<path d="M70 68.674L22.2688 97.3127" stroke="#012169" stroke-width="3"/>
<path d="M70 27.8855L22.2687 97.3127" stroke="#012169" stroke-width="3"/>
<path d="M70 68.674L117.731 97.3127Z" fill="#171717"/>
<path d="M70 68.674L117.731 97.3127" stroke="#2563EB" stroke-width="3"/>
<path d="M70 111.198L117.731 41.7709Z" fill="#171717"/>
<path d="M70 111.198L117.731 41.7709" stroke="#2563EB" stroke-width="3"/>
<path d="M70 111.198L117.731 97.3127Z" fill="#171717"/>
<path d="M70 111.198L117.731 97.3127" stroke="#2563EB" stroke-width="3"/>
<path d="M70 38C77.732 38 84 31.732 84 24C84 16.268 77.732 10 70 10C62.268 10 56 16.268 56 24C56 31.732 62.268 38 70 38Z" fill="white" stroke="#012169" stroke-width="5"/>
<path d="M70 82.9207C77.6687 82.9207 83.8854 76.7039 83.8854 69.0352C83.8854 61.3665 77.6687 55.1498 70 55.1498C62.3313 55.1498 56.1146 61.3665 56.1146 69.0352C56.1146 76.7039 62.3313 82.9207 70 82.9207Z" fill="white" stroke="#012169" stroke-width="5"/>
<path d="M70 130C77.732 130 84 123.732 84 116C84 108.268 77.732 102 70 102C62.268 102 56 108.268 56 116C56 123.732 62.268 130 70 130Z" fill="white" stroke="#012169" stroke-width="5"/>
<path d="M116 55C123.732 55 130 48.732 130 41C130 33.268 123.732 27 116 27C108.268 27 102 33.268 102 41C102 48.732 108.268 55 116 55Z" fill="white" stroke="#2563EB" stroke-width="5"/>
<path d="M116 112C123.732 112 130 105.732 130 98C130 90.268 123.732 84 116 84C108.268 84 102 90.268 102 98C102 105.732 108.268 112 116 112Z" fill="white" stroke="#2563EB" stroke-width="5"/>
<path d="M24 55C31.732 55 38 48.732 38 41C38 33.268 31.732 27 24 27C16.268 27 10 33.268 10 41C10 48.732 16.268 55 24 55Z" fill="white" stroke="#012169" stroke-width="5"/>
<path d="M24 112C31.732 112 38 105.732 38 98C38 90.268 31.732 84 24 84C16.268 84 10 90.268 10 98C10 105.732 16.268 112 24 112Z" fill="white" stroke="#012169" stroke-width="5"/>
</svg>
