<svg width="140" height="140" viewBox="0 0 140 140" fill="none" xmlns="http://www.w3.org/2000/svg">
<rect x="20" y="10" width="98" height="120" rx="5" stroke="#012169" stroke-width="5"/>
<path d="M3 70H13" stroke="#2563EB" stroke-width="5" stroke-linecap="round"/>
<path d="M125 70L136 70" stroke="#2563EB" stroke-width="5" stroke-linecap="round"/>
<path d="M68.9109 38.0312L102.742 47.8729Z" fill="#171717"/>
<path d="M68.9109 38.0312L102.742 47.8729" stroke="#012169" stroke-width="3"/>
<path d="M68.9109 41.0312L102.742 90.2395Z" fill="#171717"/>
<path d="M68.9109 41.0312L102.742 90.2395" stroke="#012169" stroke-width="3"/>
<path d="M68.9109 69.9412L102.742 50.873Z" fill="#171717"/>
<path d="M68.9109 69.9412L102.742 50.873" stroke="#012169" stroke-width="3"/>
<path d="M68.9109 69.9412L35.0802 50.873" stroke="#012169" stroke-width="3"/>
<path d="M68.9109 38.0314L35.0802 47.873" stroke="#012169" stroke-width="3"/>
<path d="M68.9109 100.081L35.0802 50.873" stroke="#012169" stroke-width="3"/>
<path d="M68.9109 102.081L35.0802 92.2397" stroke="#012169" stroke-width="3"/>
<path d="M68.9109 69.9413L35.0802 90.2397" stroke="#012169" stroke-width="3"/>
<path d="M68.9109 41.0315L35.0802 90.2397" stroke="#012169" stroke-width="3"/>
<path d="M68.9109 69.9412L102.742 90.2396Z" fill="#171717"/>
<path d="M68.9109 69.9412L102.742 90.2396" stroke="#012169" stroke-width="3"/>
<path d="M68.9109 100.081L102.742 50.873Z" fill="#171717"/>
<path d="M68.9109 100.081L102.742 50.873" stroke="#012169" stroke-width="3"/>
<path d="M68.9109 102.081L102.742 92.2397Z" fill="#171717"/>
<path d="M68.9109 102.081L102.742 92.2397" stroke="#012169" stroke-width="3"/>
<path d="M69 43.8538C74.2064 43.8538 78.427 39.6333 78.427 34.4269C78.427 29.2206 74.2064 25 69 25C63.7937 25 59.5731 29.2206 59.5731 34.4269C59.5731 39.6333 63.7937 43.8538 69 43.8538Z" fill="white" stroke="#012169" stroke-width="5"/>
<path d="M69 79.2094C74.2064 79.2094 78.427 74.9889 78.427 69.7825C78.427 64.5762 74.2064 60.3556 69 60.3556C63.7937 60.3556 59.5731 64.5762 59.5731 69.7825C59.5731 74.9889 63.7937 79.2094 69 79.2094Z" fill="white" stroke="#012169" stroke-width="5"/>
<path d="M69 115C74.3434 115 78.675 110.668 78.675 105.325C78.675 99.9815 74.3434 95.6499 69 95.6499C63.6567 95.6499 59.325 99.9815 59.325 105.325C59.325 110.668 63.6567 115 69 115Z" fill="white" stroke="#012169" stroke-width="5"/>
<path d="M98.5933 57.8851C103.8 57.8851 108.02 53.6645 108.02 48.4582C108.02 43.2518 103.8 39.0312 98.5933 39.0312C93.387 39.0312 89.1664 43.2518 89.1664 48.4582C89.1664 53.6645 93.387 57.8851 98.5933 57.8851Z" fill="white" stroke="#012169" stroke-width="5"/>
<path d="M98.5933 101.252C103.8 101.252 108.02 97.0312 108.02 91.8249C108.02 86.6185 103.8 82.3979 98.5933 82.3979C93.387 82.3979 89.1664 86.6185 89.1664 91.8249C89.1664 97.0312 93.387 101.252 98.5933 101.252Z" fill="white" stroke="#012169" stroke-width="5"/>
<path d="M39.4067 57.8851C44.6131 57.8851 48.8336 53.6645 48.8336 48.4582C48.8336 43.2518 44.6131 39.0312 39.4067 39.0312C34.2004 39.0312 29.9798 43.2518 29.9798 48.4582C29.9798 53.6645 34.2004 57.8851 39.4067 57.8851Z" fill="white" stroke="#012169" stroke-width="5"/>
<path d="M39.4067 101.252C44.6131 101.252 48.8336 97.0312 48.8336 91.8249C48.8336 86.6185 44.6131 82.3979 39.4067 82.3979C34.2004 82.3979 29.9798 86.6185 29.9798 91.8249C29.9798 97.0312 34.2004 101.252 39.4067 101.252Z" fill="white" stroke="#012169" stroke-width="5"/>
<path d="M130 61L137 70" stroke="#2563EB" stroke-width="5" stroke-linecap="round"/>
<path d="M130 79L137 70" stroke="#2563EB" stroke-width="5" stroke-linecap="round"/>
</svg>
