<svg width="140" height="140" viewBox="0 0 140 140" fill="none" xmlns="http://www.w3.org/2000/svg">
<path d="M69.7043 28.2506L117.503 42.1558Z" fill="#171717"/>
<path d="M69.7043 28.2506L117.503 42.1558" stroke="#2563EB" stroke-width="3"/>
<path d="M69.7043 28.2506L117.503 97.7766Z" fill="#171717"/>
<path d="M69.7043 28.2506L117.503 97.7766" stroke="#2563EB" stroke-width="3"/>
<path d="M69.7043 69.0971L117.503 42.1558Z" fill="#171717"/>
<path d="M69.7043 69.0971L117.503 42.1558" stroke="#2563EB" stroke-width="3"/>
<path d="M69.7043 69.0971L21.9052 42.1558" stroke="#2563EB" stroke-width="3"/>
<path d="M69.7043 28.2506L21.9052 42.1558" stroke="#2563EB" stroke-width="3"/>
<path d="M69.7043 111.682L21.9053 42.1558" stroke="#2563EB" stroke-width="3"/>
<path d="M69.7043 111.682L21.9052 97.7766" stroke="#2563EB" stroke-width="3"/>
<path d="M69.7043 69.0971L21.9052 97.7766" stroke="#2563EB" stroke-width="3"/>
<path d="M69.7043 28.2506L21.9052 97.7766" stroke="#2563EB" stroke-width="3"/>
<path d="M69.7043 69.0972L117.503 97.7766Z" fill="#171717"/>
<path d="M69.7043 69.0972L117.503 97.7766" stroke="#2563EB" stroke-width="3"/>
<path d="M69.7043 111.682L117.503 42.1558Z" fill="#171717"/>
<path d="M69.7043 111.682L117.503 42.1558" stroke="#2563EB" stroke-width="3"/>
<path d="M69.7043 111.682L117.503 97.7766Z" fill="#171717"/>
<path d="M69.7043 111.682L117.503 97.7766" stroke="#2563EB" stroke-width="3"/>
<path d="M69.7043 39.1559C77.3839 39.1559 83.6095 32.9303 83.6095 25.2507C83.6095 17.571 77.3839 11.3455 69.7043 11.3455C62.0246 11.3455 55.7991 17.571 55.7991 25.2507C55.7991 32.9303 62.0246 39.1559 69.7043 39.1559Z" fill="white" stroke="#012169" stroke-width="5"/>
<path d="M69.7043 83.0023C77.3839 83.0023 83.6095 76.7767 83.6095 69.0971C83.6095 61.4175 77.3839 55.1919 69.7043 55.1919C62.0246 55.1919 55.7991 61.4175 55.7991 69.0971C55.7991 76.7767 62.0246 83.0023 69.7043 83.0023Z" fill="white" stroke="#012169" stroke-width="5"/>
<path d="M69.7043 128.587C77.3839 128.587 83.6095 122.361 83.6095 114.682C83.6095 107.002 77.3839 100.777 69.7043 100.777C62.0246 100.777 55.7991 107.002 55.7991 114.682C55.7991 122.361 62.0246 128.587 69.7043 128.587Z" fill="white" stroke="#012169" stroke-width="5"/>
<path d="M116 56C123.732 56 130 49.732 130 42C130 34.268 123.732 28 116 28C108.268 28 102 34.268 102 42C102 49.732 108.268 56 116 56Z" fill="white" stroke="#012169" stroke-width="5"/>
<path d="M116 111C123.732 111 130 104.732 130 97C130 89.268 123.732 83 116 83C108.268 83 102 89.268 102 97C102 104.732 108.268 111 116 111Z" fill="white" stroke="#012169" stroke-width="5"/>
<path d="M23.9052 56.061C31.5848 56.061 37.8104 49.8354 37.8104 42.1558C37.8104 34.4762 31.5848 28.2506 23.9052 28.2506C16.2256 28.2506 10 34.4762 10 42.1558C10 49.8354 16.2256 56.061 23.9052 56.061Z" fill="white" stroke="#012169" stroke-width="5"/>
<path d="M23.9052 111.682C31.5848 111.682 37.8104 105.456 37.8104 97.7765C37.8104 90.0969 31.5848 83.8713 23.9052 83.8713C16.2256 83.8713 10 90.0969 10 97.7765C10 105.456 16.2256 111.682 23.9052 111.682Z" fill="white" stroke="#012169" stroke-width="5"/>
<path d="M130 42.1558C130 49.8354 123.732 56.061 116 56.061" stroke="url(#paint0_linear_2001_249)" stroke-width="5"/>
<path d="M102 42.1558C102 34.4762 108.268 28.2506 116 28.2506" stroke="url(#paint1_linear_2001_249)" stroke-width="5"/>
<path d="M113.409 23.9052L117.818 28.2844L113.409 32.6636" stroke="#2563EB" stroke-width="5" stroke-linecap="round" stroke-linejoin="round"/>
<path d="M117.784 60.474L113.375 56.0948L117.784 51.7156" stroke="#2563EB" stroke-width="5" stroke-linecap="round" stroke-linejoin="round"/>
<path d="M83.6095 25.2506C83.6095 32.9302 77.384 39.1558 69.7043 39.1558" stroke="url(#paint2_linear_2001_249)" stroke-width="5"/>
<path d="M55.7991 25.2505C55.7991 17.5709 62.0246 11.3453 69.7043 11.3453" stroke="url(#paint3_linear_2001_249)" stroke-width="5"/>
<path d="M67.1308 7.00003L71.5101 11.3792L67.1309 15.7584" stroke="#2563EB" stroke-width="5" stroke-linecap="round" stroke-linejoin="round"/>
<path d="M71.4764 43.5688L67.0971 39.1896L71.4763 34.8104" stroke="#2563EB" stroke-width="5" stroke-linecap="round" stroke-linejoin="round"/>
<path d="M37.8103 42.1558C37.8103 49.8354 31.5848 56.061 23.9052 56.061" stroke="url(#paint4_linear_2001_249)" stroke-width="5"/>
<path d="M10 42.1558C10 34.4762 16.2256 28.2506 23.9052 28.2506" stroke="url(#paint5_linear_2001_249)" stroke-width="5"/>
<path d="M21.3318 23.9052L25.711 28.2844L21.3318 32.6636" stroke="#2563EB" stroke-width="5" stroke-linecap="round" stroke-linejoin="round"/>
<path d="M25.6772 60.474L21.2979 56.0948L25.6771 51.7156" stroke="#2563EB" stroke-width="5" stroke-linecap="round" stroke-linejoin="round"/>
<path d="M37.8103 97.7766C37.8103 105.456 31.5848 111.682 23.9052 111.682" stroke="url(#paint6_linear_2001_249)" stroke-width="5"/>
<path d="M10 97.7765C10 90.0969 16.2256 83.8713 23.9052 83.8713" stroke="url(#paint7_linear_2001_249)" stroke-width="5"/>
<path d="M21.3318 79.526L25.711 83.9052L21.3318 88.2844" stroke="#2563EB" stroke-width="5" stroke-linecap="round" stroke-linejoin="round"/>
<path d="M25.6772 116.095L21.2979 111.715L25.6771 107.336" stroke="#2563EB" stroke-width="5" stroke-linecap="round" stroke-linejoin="round"/>
<path d="M83.6095 69.0972C83.6095 76.7768 77.384 83.0024 69.7043 83.0024" stroke="url(#paint8_linear_2001_249)" stroke-width="5"/>
<path d="M55.7991 69.0972C55.7991 61.4176 62.0246 55.192 69.7043 55.192" stroke="url(#paint9_linear_2001_249)" stroke-width="5"/>
<path d="M67.1308 50.8466L71.5101 55.2258L67.1309 59.605" stroke="#2563EB" stroke-width="5" stroke-linecap="round" stroke-linejoin="round"/>
<path d="M71.4764 87.4154L67.0971 83.0362L71.4763 78.657" stroke="#2563EB" stroke-width="5" stroke-linecap="round" stroke-linejoin="round"/>
<path d="M83.6095 114.682C83.6095 122.362 77.384 128.587 69.7043 128.587" stroke="url(#paint10_linear_2001_249)" stroke-width="5"/>
<path d="M55.7991 114.682C55.7991 107.002 62.0246 100.777 69.7043 100.777" stroke="url(#paint11_linear_2001_249)" stroke-width="5"/>
<path d="M67.1308 96.4312L71.5101 100.81L67.1309 105.19" stroke="#2563EB" stroke-width="5" stroke-linecap="round" stroke-linejoin="round"/>
<path d="M71.4764 133L67.0971 128.621L71.4763 124.242" stroke="#2563EB" stroke-width="5" stroke-linecap="round" stroke-linejoin="round"/>
<path d="M130 97.2505C130 104.93 123.732 111.156 116 111.156" stroke="url(#paint12_linear_2001_249)" stroke-width="5"/>
<path d="M102 97.2507C102 89.571 108.268 83.3455 116 83.3455" stroke="url(#paint13_linear_2001_249)" stroke-width="5"/>
<path d="M113.409 79L117.818 83.3792L113.409 87.7584" stroke="#2563EB" stroke-width="5" stroke-linecap="round" stroke-linejoin="round"/>
<path d="M117.784 115.569L113.375 111.19L117.784 106.81" stroke="#2563EB" stroke-width="5" stroke-linecap="round" stroke-linejoin="round"/>
<defs>
<linearGradient id="paint0_linear_2001_249" x1="123" y1="42.1558" x2="123" y2="56.061" gradientUnits="userSpaceOnUse">
<stop stop-color="#012169"/>
<stop offset="1" stop-color="#2563EB"/>
</linearGradient>
<linearGradient id="paint1_linear_2001_249" x1="109" y1="28.2506" x2="109" y2="42.1558" gradientUnits="userSpaceOnUse">
<stop stop-color="#2563EB"/>
<stop offset="1" stop-color="#012169"/>
</linearGradient>
<linearGradient id="paint2_linear_2001_249" x1="76.6569" y1="25.2506" x2="76.6569" y2="39.1558" gradientUnits="userSpaceOnUse">
<stop stop-color="#012169"/>
<stop offset="1" stop-color="#2563EB"/>
</linearGradient>
<linearGradient id="paint3_linear_2001_249" x1="62.7517" y1="11.3453" x2="62.7517" y2="25.2505" gradientUnits="userSpaceOnUse">
<stop stop-color="#2563EB"/>
<stop offset="1" stop-color="#012169"/>
</linearGradient>
<linearGradient id="paint4_linear_2001_249" x1="30.8578" y1="42.1558" x2="30.8578" y2="56.061" gradientUnits="userSpaceOnUse">
<stop stop-color="#012169"/>
<stop offset="1" stop-color="#2563EB"/>
</linearGradient>
<linearGradient id="paint5_linear_2001_249" x1="16.9526" y1="28.2506" x2="16.9526" y2="42.1558" gradientUnits="userSpaceOnUse">
<stop stop-color="#2563EB"/>
<stop offset="1" stop-color="#012169"/>
</linearGradient>
<linearGradient id="paint6_linear_2001_249" x1="30.8578" y1="97.7766" x2="30.8578" y2="111.682" gradientUnits="userSpaceOnUse">
<stop stop-color="#012169"/>
<stop offset="1" stop-color="#2563EB"/>
</linearGradient>
<linearGradient id="paint7_linear_2001_249" x1="16.9526" y1="83.8713" x2="16.9526" y2="97.7765" gradientUnits="userSpaceOnUse">
<stop stop-color="#2563EB"/>
<stop offset="1" stop-color="#012169"/>
</linearGradient>
<linearGradient id="paint8_linear_2001_249" x1="76.6569" y1="69.0972" x2="76.6569" y2="83.0024" gradientUnits="userSpaceOnUse">
<stop stop-color="#012169"/>
<stop offset="1" stop-color="#2563EB"/>
</linearGradient>
<linearGradient id="paint9_linear_2001_249" x1="62.7517" y1="55.192" x2="62.7517" y2="69.0972" gradientUnits="userSpaceOnUse">
<stop stop-color="#2563EB"/>
<stop offset="1" stop-color="#012169"/>
</linearGradient>
<linearGradient id="paint10_linear_2001_249" x1="76.6569" y1="114.682" x2="76.6569" y2="128.587" gradientUnits="userSpaceOnUse">
<stop stop-color="#012169"/>
<stop offset="1" stop-color="#2563EB"/>
</linearGradient>
<linearGradient id="paint11_linear_2001_249" x1="62.7517" y1="100.777" x2="62.7517" y2="114.682" gradientUnits="userSpaceOnUse">
<stop stop-color="#2563EB"/>
<stop offset="1" stop-color="#012169"/>
</linearGradient>
<linearGradient id="paint12_linear_2001_249" x1="123" y1="97.2505" x2="123" y2="111.156" gradientUnits="userSpaceOnUse">
<stop stop-color="#012169"/>
<stop offset="1" stop-color="#2563EB"/>
</linearGradient>
<linearGradient id="paint13_linear_2001_249" x1="109" y1="83.3455" x2="109" y2="97.2507" gradientUnits="userSpaceOnUse">
<stop stop-color="#2563EB"/>
<stop offset="1" stop-color="#012169"/>
</linearGradient>
</defs>
</svg>
