<svg width="140" height="140" viewBox="0 0 140 140" fill="none" xmlns="http://www.w3.org/2000/svg">
<path d="M72.5259 106L109.477 106" stroke="#012169" stroke-width="5" stroke-linecap="round"/>
<path d="M72.5259 115.504L109.477 115.504" stroke="#012169" stroke-width="5" stroke-linecap="round"/>
<path d="M79.8884 55.3362C85.3665 55.3362 90.8446 57.4015 95.013 61.534C103.35 69.799 103.339 83.2482 95.0025 91.5133C87.0476 99.3997 74.3425 99.7526 65.9516 92.5894L63.4744 95.0525V95.0525C64.9566 96.5259 64.9562 98.9241 63.4735 100.397L58.8177 105.022L52.7655 111.022C50.6642 113.105 47.1955 113.105 45.094 111.022C42.9926 108.939 42.9926 105.5 45.094 103.416L56.0885 92.5158C57.4264 91.1894 59.5838 91.191 60.9197 92.5193V92.5193L63.4146 90.0458C56.4609 81.7253 56.9074 69.3237 64.7642 61.5337C68.9326 57.401 74.4103 55.3359 79.8889 55.3359L79.8884 55.3362ZM79.8884 58.8893C75.3415 58.8893 70.7941 60.6146 67.3151 64.0634C60.3575 70.9614 60.3575 82.0966 67.3151 88.9946C74.2727 95.8926 85.5041 95.8926 92.4616 88.9946C99.4192 82.0966 99.4192 70.9614 92.4616 64.0634C88.9828 60.6144 84.4355 58.8893 79.8884 58.8893ZM69.0101 65.7444C69.7105 65.0497 70.8554 65.0518 71.5555 65.7469V65.7469C72.2547 66.4411 72.262 67.5807 71.5613 68.2734V68.2734C68.714 71.0964 67.5174 75.1609 68.3898 79.0585V79.0585C68.6075 80.0164 67.991 80.972 67.0322 81.1858V81.1858C66.0614 81.4024 65.0839 80.7943 64.866 79.8238V79.8238C63.7272 74.737 65.2939 69.4284 69.0101 65.7444V65.7444ZM58.5052 95.189L47.6515 105.953C46.9196 106.679 46.9196 107.76 47.6515 108.486C48.3833 109.212 49.4743 109.212 50.2064 108.486L61.0634 97.7254L58.5052 95.189Z" fill="#2563EB"/>
<rect x="11" y="9" width="117" height="40.3333" rx="20" stroke="#012169" stroke-width="5"/>
<path d="M53.12 89.6667H31C19.9543 89.6667 11 80.5457 11 69.5V69.5C11 58.4543 19.9543 49.3334 31 49.3334H108C119.046 49.3334 128 58.2877 128 69.3334V70.9467C128 81.2855 119.619 89.6667 109.28 89.6667V89.6667" stroke="#012169" stroke-width="5" stroke-linecap="round"/>
<path d="M125.5 108.387V110H130.5V108.387H125.5ZM108 127.5H31V132.5H108V127.5ZM31 92.1666H53.588V87.1666H31V92.1666ZM31 127.5C21.3619 127.5 13.5 119.525 13.5 109.833H8.5C8.5 122.233 18.5467 132.5 31 132.5V127.5ZM125.5 110C125.5 119.665 117.665 127.5 108 127.5V132.5C120.426 132.5 130.5 122.426 130.5 110H125.5ZM130.5 108.387C130.5 96.6671 120.999 87.1666 109.28 87.1666V92.1666C118.238 92.1666 125.5 99.4286 125.5 108.387H130.5ZM13.5 109.833C13.5 100.141 21.3619 92.1666 31 92.1666V87.1666C18.5467 87.1666 8.5 97.4339 8.5 109.833H13.5Z" fill="#012169"/>
<path d="M55.3793 24H109.845" stroke="#012169" stroke-width="5" stroke-linecap="round"/>
<path d="M55.3793 33H109.845" stroke="#012169" stroke-width="5" stroke-linecap="round"/>
<ellipse cx="31.4952" cy="110.32" rx="4.35724" ry="4.32" fill="#2563EB"/>
<ellipse cx="31.9148" cy="70.024" rx="4.35724" ry="4.32" fill="#2563EB"/>
<ellipse cx="31.4952" cy="28.32" rx="4.35724" ry="4.32" fill="#2563EB"/>
</svg>
